Coordinates
version=1
nRows=8
nColumns=33
inDegrees=yes

Units are S.I. units (second, meters, Newtons, ...)
Angles are in degrees.

endheader
time	ground_thorax_rot_x	ground_thorax_rot_y	ground_thorax_rot_z	ground_thorax_tx	ground_thorax_ty	ground_thorax_tz	clav_prot_r	clav_elev_r	scapula_abduction_r	scapula_elevation_r	scapula_upward_rot_r	scapula_winging_r	shoulder_elv_r	plane_of_elev_r	axial_rot_r	elbow_flexion_r	pro_sup_r	wrist_flex_r	wrist_dev_r	clav_prot_l	clav_elev_l	scapula_abduction_l	scapula_elevation_l	scapula_upward_rot_l	scapula_winging_l	shoulder_elv_l	plane_of_elev_l	axial_rot_l	elbow_flexion_l	pro_sup_l	wrist_flex_l	wrist_dev_l
      8.13000000	     26.18527807	     28.87119780	     44.93256035	      5.99080790	    780.45262523	    -43.40148407	     12.99121506	     35.65734272	     25.58233198	     45.00000000	    -45.00000000	  -1885.36447769	  -2447.58835464	     20.76195071	   -157.38177423	   -359.32792977	    173.08761827	     12.96963662	     12.82730070	    -11.21647409	    -45.00000000	    -37.28605098	     45.00000000	    -45.00000000	  -2775.59644709	     76.71061645	     24.50590320	     22.68490654	   2150.56078336	     46.30309871	     11.74984226	    -16.46470688
      8.14000000	     26.34289678	     28.74333140	     44.57110909	      3.86774076	    781.61588130	    -43.38839548	     13.00538431	     35.55278979	     25.56141274	     45.00000000	    -45.00000000	  -1885.55406915	  -2447.53742039	     20.91307385	   -157.41833545	   -359.41155546	    172.85245369	     12.93482330	     13.08696995	    -11.16220710	    -45.00000000	    -37.28552825	     45.00000000	    -45.00000000	  -2775.58121855	     76.76479271	     24.66098472	     23.00844670	   2150.44573847	     46.12231136	     11.93496424	    -16.54123572
      8.15000000	     26.40488979	     28.70156323	     44.36500105	      1.73827625	    782.83403475	    -43.38579035	     13.01096651	     35.67191001	     25.60649198	     45.00000000	    -45.00000000	  -1885.66367230	  -2447.55300146	     20.76905409	   -157.61256518	   -359.51837467	    172.54368904	     13.03981923	     12.87223799	    -11.08869121	    -45.00000000	    -37.42359741	     45.00000000	    -45.00000000	  -2775.52458187	     76.79823716	     24.67507655	     23.17363166	   2150.45423850	     45.93302851	     11.95731502	    -16.49360396
      8.16000000	     26.31674240	     28.67129007	     44.38772551	     -0.38452684	    784.09878203	    -43.39497736	     13.04265691	     35.42608143	     25.55236285	     45.00000000	    -45.00000000	  -1885.70821615	  -2447.48425755	     20.73080605	   -157.66276687	   -359.50934370	    172.25791391	     12.97951129	     13.05871962	    -10.94015203	    -45.00000000	    -37.49550523	     45.00000000	    -45.00000000	  -2775.48496788	     77.03643184	     24.53776301	     23.36988742	   2150.49262980	     45.69895526	     11.98421634	    -16.49217399
      8.17000000	     26.41626833	     28.54796494	     44.15693106	     -2.50436564	    785.41154457	    -43.41648677	     13.01272684	     35.50028377	     25.63085897	     45.00000000	    -45.00000000	  -1885.88304064	  -2447.49750941	     20.73842458	   -157.75110282	   -359.58486917	    171.94251349	     13.00341204	     13.09342046	    -10.84937276	    -45.00000000	    -37.55147707	     45.00000000	    -45.00000000	  -2775.37995086	     77.09461961	     24.63098050	     23.70549769	   2150.46229742	     45.47153106	     12.09072404	    -16.50560345
      8.18000000	     26.61522895	     28.35726197	     43.80009551	     -4.61411355	    786.76689749	    -43.45076323	     12.97338400	     35.49688861	     25.73888659	     45.00000000	    -45.00000000	  -1885.99825437	  -2447.48930614	     20.81625225	   -157.83973578	   -359.53328043	    171.66291232	     12.96260620	     13.22171597	    -10.75628497	    -45.00000000	    -37.62333358	     45.00000000	    -45.00000000	  -2775.25370380	     77.09301897	     24.76426470	     24.06919761	   2150.44658980	     45.24337812	     12.29523783	    -16.63358600
      8.19000000	     26.63148175	     28.33779690	     43.66235091	     -6.71083437	    788.16094252	    -43.49765476	     13.04453108	     35.37450731	     25.60985393	     45.00000000	    -45.00000000	  -1886.09854212	  -2447.36763709	     20.79680840	   -157.95712689	   -359.68375607	    171.34807642	     13.00079083	     13.24309722	    -10.64244053	    -45.00000000	    -37.69565144	     45.00000000	    -45.00000000	  -2775.29312982	     77.24120279	     24.73857434	     24.23603248	   2150.39034146	     45.00487627	     12.31193366	    -16.56296369
      8.20000000	     26.74602089	     28.19490979	     43.41566245	     -8.79207783	    789.58943891	    -43.55720422	     12.99958867	     35.43059872	     25.71691812	     45.00000000	    -45.00000000	  -1886.26835827	  -2447.39847382	     20.83122714	   -158.09665922	   -359.68004786	    171.04861549	     13.00370699	     13.30201715	    -10.57457254	    -45.00000000	    -37.74389674	     45.00000000	    -45.00000000	  -2775.17360761	     77.27546405	     24.83826724	     24.53946539	   2150.38586645	     44.76465433	     12.44004638	    -16.61591896
